<svg xmlns="http://www.w3.org/2000/svg" version="1.0" width="409.000000pt" height="222.000000pt" viewBox="0 0 409.000000 222.000000" preserveAspectRatio="xMidYMid meet">
    <g transform="translate(0.000000,222.000000) scale(0.100000,-0.100000)" fill="#000000" stroke="none">
        <path d="M886 2193 c-4 -4 -61 -8 -127 -10 -101 -2 -131 -6 -187 -28 -170 -65 -305 -149 -407 -252 -123 -124 -160 -225 -153 -408 4 -89 11 -126 35 -196 36 -101 60 -149 74 -149 5 0 56 -44 113 -97 172 -164 305 -225 496 -227 105 -1 105 -1 190 42 65 32 104 62 168 124 45 45 82 87 82 94 0 6 11 19 24 27 14 10 35 44 52 87 21 55 31 70 48 70 12 0 45 11 74 25 43 20 52 29 52 50 0 14 4 25 9 25 18 0 119 101 151 149 39 62 58 163 40 217 -12 36 -59 74 -92 74 -13 0 -16 9 -16 43 1 77 -20 128 -72 179 -91 87 -193 126 -371 138 -70 4 -136 13 -147 19 -24 13 -26 13 -36 4z m144 -184 c0 -4 12 -9 27 -11 19 -2 29 -11 36 -31 5 -16 7 -30 5 -33 -8 -7 -72 29 -90 50 -22 27 -22 32 2 32 11 0 20 -4 20 -7z m117 -101 c-3 -7 -5 -2 -5 12 0 14 2 19 5 13 2 -7 2 -19 0 -25z m-669 6 c23 -9 44 -26 51 -41 14 -30 4 -92 -15 -100 -8 -3 -14 -14 -14 -24 0 -10 -5 -19 -11 -19 -6 0 -8 -8 -4 -18 3 -11 -3 -29 -15 -45 -11 -14 -20 -30 -20 -36 0 -6 -9 -15 -19 -21 -11 -5 -20 -18 -20 -28 -1 -36 -14 -82 -23 -82 -6 0 -5 -6 2 -15 20 -24 -1 -139 -31 -167 -26 -25 -39 -22 -40 10 -1 16 -3 20 -6 10 -7 -27 -19 -22 -43 17 -15 25 -19 39 -12 48 12 14 -3 61 -17 52 -5 -3 -13 4 -16 16 -5 14 -2 25 6 30 10 6 11 9 1 9 -34 0 -122 135 -122 186 0 18 7 40 16 48 8 9 12 21 9 27 -14 21 122 119 165 119 9 0 20 4 26 9 5 6 32 14 59 19 28 5 51 10 52 11 2 0 20 -6 41 -15z m-131 -806 c-3 -8 -6 -5 -6 6 -1 11 2 17 5 13 3 -3 4 -12 1 -19z"/>
        <path d="M354 1513 c-12 -19 11 -77 27 -67 5 3 6 10 3 16 -4 6 -10 24 -13 40 -5 25 -7 26 -17 11z"/>
        <path d="M2444 1609 c-69 -16 -145 -68 -171 -119 -27 -52 -46 -65 -89 -62 -34 3 -157 -66 -239 -133 -132 -109 -210 -288 -236 -545 -18 -182 4 -328 67 -456 45 -92 99 -143 204 -195 l85 -42 130 -1 c72 -1 137 2 146 6 9 4 30 0 50 -11 24 -13 41 -16 57 -10 14 6 31 5 43 -2 11 -5 29 -7 40 -4 13 4 28 0 40 -11 17 -15 26 -16 96 -5 43 7 85 11 93 10 137 -16 500 32 687 91 34 11 70 20 81 20 11 0 37 6 59 14 33 12 63 11 201 -1 189 -17 195 -15 236 65 39 78 51 153 49 317 -1 116 -6 168 -22 228 -38 144 -95 219 -170 222 -20 1 -47 7 -61 13 -34 15 -248 62 -284 62 -38 0 -90 43 -245 202 -171 177 -281 255 -436 308 -130 45 -309 62 -411 39z m-52 -151 c-4 -18 -2 -20 14 -13 10 4 45 9 76 11 48 3 56 1 52 -11 -5 -12 -27 -15 -110 -15 -103 0 -104 0 -94 21 11 20 49 40 62 33 3 -2 4 -14 0 -26z m193 -28 c-3 -5 -10 -10 -16 -10 -5 0 -9 5 -9 10 0 6 7 10 16 10 8 0 12 -4 9 -10z m340 -220 c4 -16 12 -30 18 -30 6 0 21 -9 33 -21 19 -18 20 -25 12 -57 -6 -20 -10 -47 -10 -60 0 -21 -4 -23 -48 -20 -38 2 -46 6 -38 16 6 7 9 14 7 15 -2 2 -21 15 -41 30 -41 31 -53 34 -45 12 4 -8 2 -17 -3 -20 -6 -4 -10 1 -10 9 0 9 -4 16 -9 16 -18 0 -23 54 -7 66 9 6 13 13 10 16 -2 3 8 3 23 0 25 -5 27 -4 14 11 -11 14 -11 18 5 23 11 3 28 9 39 14 34 15 43 11 50 -20z m-805 -5 c14 -8 32 -17 40 -21 22 -10 73 -67 86 -95 36 -76 54 -169 37 -191 -5 -7 -10 -29 -11 -48 -3 -41 -21 -90 -33 -90 -5 0 -9 -11 -9 -24 0 -13 -9 -35 -20 -49 -11 -14 -20 -31 -20 -39 0 -19 -23 -68 -32 -68 -5 0 -8 -16 -8 -36 0 -35 -1 -36 -30 -30 -18 3 -29 2 -25 -3 3 -5 1 -12 -4 -15 -11 -7 -11 -55 0 -62 5 -3 9 2 9 10 0 9 9 16 20 16 11 0 20 -2 20 -5 0 -12 -37 -64 -42 -59 -3 3 -9 1 -13 -5 -3 -6 1 -11 9 -11 10 0 18 -18 26 -56 7 -30 9 -58 7 -61 -10 -9 -26 7 -21 20 2 7 -4 22 -16 32 -24 21 -26 37 -5 29 9 -4 15 0 15 10 0 9 -4 16 -9 16 -35 0 -55 71 -25 88 12 7 13 11 5 17 -9 5 -9 10 -1 20 15 18 4 35 -21 35 -12 0 -19 7 -19 19 0 10 -7 24 -15 31 -8 7 -15 29 -15 49 0 20 -7 45 -15 55 -8 11 -15 28 -15 37 0 10 -4 19 -9 21 -5 2 -10 19 -12 38 -2 19 -9 42 -16 50 -7 9 -15 56 -18 105 -6 89 -5 91 34 175 24 52 49 90 63 97 31 17 77 16 108 -2z m1540 -265 c6 -11 8 -20 6 -20 -3 0 -10 9 -16 20 -6 11 -8 20 -6 20 3 0 10 -9 16 -20z m69 -70 c0 -10 -3 -8 -9 5 -12 27 -12 43 0 25 5 -8 9 -22 9 -30z"/>
        <path d="M2115 550 c-3 -5 -1 -10 4 -10 6 0 11 5 11 10 0 6 -2 10 -4 10 -3 0 -8 -4 -11 -10z"/>
    </g>
</svg>